<svg xmlns="http://www.w3.org/2000/svg" enable-background="new 0 0 32 32" viewBox="0 0 32 32"><path fill="#F5E6FE" d="M26,32H6c-3.314,0-6-2.686-6-6V6c0-3.314,2.686-6,6-6h20c3.314,0,6,2.686,6,6v20C32,29.314,29.314,32,26,32z"/><path fill="#BE63F9" d="M22.667,8H9.333C8.597,8,8,8.597,8,9.333v13.333C8,23.403,8.597,24,9.333,24h13.334C23.403,24,24,23.403,24,22.667V9.333C24,8.597,23.403,8,22.667,8z M13.567,16.273c-0.253,0-0.34-0.011-0.517-0.011v2.561c0,0.055-0.022,0.077-0.077,0.077h-1.029c-0.055,0-0.077-0.02-0.077-0.075v-7.172h-0.001c0-0.045,0.093-0.077,0.149-0.077c0.429-0.022,1.059-0.033,1.719-0.033c1.848,0,2.567,1.013,2.567,2.311C16.301,15.547,15.073,16.273,13.567,16.273z M18.37,19.001c-0.584,0-1.08-0.122-1.367-0.287c-0.043-0.022-0.053-0.055-0.053-0.11v-0.978c0-0.067,0.032-0.089,0.076-0.056c0.416,0.275,0.901,0.396,1.341,0.396c0.528,0,0.748-0.22,0.748-0.517c0-0.242-0.153-0.451-0.825-0.803c-0.947-0.453-1.343-0.913-1.343-1.685c0-0.858,0.671-1.573,1.837-1.573c0.573,0,0.976,0.088,1.196,0.187c0.055,0.033,0.067,0.088,0.067,0.132v0.913c0,0.055-0.033,0.089-0.1,0.067c-0.296-0.176-0.733-0.287-1.162-0.287l0.003,0.003c-0.528,0-0.704,0.264-0.704,0.484c0,0.242,0.12,0.407,0.825,0.77c1.045,0.507,1.375,0.99,1.375,1.705C20.284,18.428,19.47,19.001,18.37,19.001z"/><path fill="#D9A4FC" d="M13.689,12.599c-0.264,0-0.517,0.011-0.638,0.022v2.574c0.153,0.011,0.274,0.011,0.539,0.011c0.78,0,1.513-0.275,1.513-1.331C15.103,13.028,14.579,12.599,13.689,12.599z"/></svg>